<svg width="68.008301" height="54.856567" viewBox="0 0 68.0083 54.8566" fill="none" xmlns="http://www.w3.org/2000/svg" xmlns:xlink="http://www.w3.org/1999/xlink">
	<desc>
			Created with Pixso.
	</desc>
	<defs>
		<linearGradient x1="-587.829712" y1="325.631287" x2="-547.298767" y2="325.631287" id="paint_linear_3_321_0" gradientUnits="userSpaceOnUse">
			<stop stop-color="#C33764"/>
			<stop offset="1.000000" stop-color="#1D2671"/>
		</linearGradient>
		<linearGradient x1="-583.292419" y1="315.059082" x2="-573.841736" y2="321.940674" id="paint_linear_3_322_0" gradientUnits="userSpaceOnUse">
			<stop stop-color="#E2316A"/>
			<stop offset="1.000000" stop-color="#1D2671"/>
		</linearGradient>
		<linearGradient x1="-538.126221" y1="315.156738" x2="-605.475342" y2="285.569397" id="paint_linear_3_323_0" gradientUnits="userSpaceOnUse">
			<stop stop-color="#0AC60A"/>
			<stop offset="1.000000" stop-color="#0AC60A"/>
		</linearGradient>
		<linearGradient x1="-557.383240" y1="305.433319" x2="-554.848511" y2="305.433319" id="paint_linear_3_324_0" gradientUnits="userSpaceOnUse">
			<stop stop-color="#FCC400"/>
			<stop offset="0.162000" stop-color="#FBC000"/>
			<stop offset="0.307000" stop-color="#F8B500"/>
			<stop offset="0.446000" stop-color="#F3A300"/>
			<stop offset="0.581000" stop-color="#EB8900"/>
			<stop offset="0.712000" stop-color="#E26800"/>
			<stop offset="0.842000" stop-color="#D73F00"/>
			<stop offset="0.967000" stop-color="#CA1000"/>
			<stop offset="1.000000" stop-color="#C70300"/>
		</linearGradient>
	</defs>
	<mask id="mask3_318" mask-type="alpha" maskUnits="userSpaceOnUse" x="0.000000" y="0.000000" width="68.008301" height="54.856567">
		<path id="Vector" d="M0 0L68 0L68 54.85L0 54.85L0 0Z" fill="#000000" fill-opacity="1.000000" fill-rule="evenodd"/>
	</mask>
	<g mask="url(#mask3_318)">
		<path id="Vector" d="M22.16 40.51C21.8 40.51 21.44 40.5 21.08 40.48L9.07 22.18C9.07 22.18 9.06 22.18 9.06 22.17L4.28 14.89L1.06 9.99C0.42 9.01 0.06 7.89 0.01 6.72C-0.04 5.56 0.23 4.41 0.78 3.38C1.33 2.36 2.15 1.51 3.15 0.91C4.15 0.31 5.29 0 6.45 -0.01L20.08 -0.01C18.81 2.6 18.14 5.46 18.14 8.37C18.14 11.27 18.8 14.13 20.07 16.74C20.12 16.83 20.16 16.93 20.21 17.02C20.25 17.07 20.28 17.13 20.32 17.18L22.49 20.49L22.5 20.5L29.11 30.56C29.12 30.57 29.12 30.58 29.13 30.59L31.29 33.87C31.67 34.47 32.24 34.92 32.9 35.16C33.57 35.4 34.29 35.41 34.96 35.2L34.97 35.2L34.97 35.2L34.97 35.2L34.97 35.2C35.22 35.12 35.46 35.01 35.68 34.87C33.91 36.66 31.8 38.07 29.48 39.04C27.16 40.01 24.67 40.51 22.16 40.51L22.16 40.51Z" fill="url(#paint_linear_3_321_0)" fill-opacity="1.000000" fill-rule="nonzero"/>
		<path id="Vector" d="M20.07 16.74C18.8 14.14 18.13 11.28 18.14 8.38C18.14 7.39 18.22 6.4 18.37 5.43C18.37 5.41 18.38 5.39 18.38 5.37C18.68 3.5 19.25 1.69 20.08 0L20.39 0C20.62 -0.01 20.85 0.01 21.08 0.03L21.11 0.03C22.9 0.21 24.56 1.05 25.76 2.38C26.97 3.71 27.64 5.45 27.64 7.25L27.64 12.15L23.04 12.15C22.24 12.15 21.47 12.44 20.88 12.97C20.28 13.5 19.9 14.23 19.81 15.02C19.74 15.6 19.83 16.2 20.07 16.74Z" fill="url(#paint_linear_3_322_0)" fill-opacity="1.000000" fill-rule="nonzero"/>
		<path id="Vector" d="M28.61 51.95L21.08 40.48C21.44 40.5 21.8 40.51 22.16 40.51C24.67 40.51 27.16 40.01 29.48 39.04C31.8 38.07 33.91 36.66 35.68 34.88C36.1 34.63 36.46 34.28 36.72 33.87L37.22 33.12C37.84 32.32 38.39 31.47 38.88 30.59C38.89 30.57 38.9 30.56 38.9 30.54L47.67 17.18C48 16.69 48.18 16.12 48.21 15.54C48.23 14.95 48.1 14.37 47.82 13.85C47.54 13.33 47.13 12.9 46.62 12.6C46.11 12.3 45.54 12.14 44.95 12.14L40.35 12.14L40.35 7.25C40.35 5.32 41.11 3.48 42.47 2.12C43.83 0.76 45.68 0 47.6 0L61.54 0C62.2 -0.01 62.87 0.09 63.5 0.3C64.32 0.55 65.07 0.97 65.71 1.53C65.79 1.59 65.85 1.64 65.92 1.7C65.94 1.72 65.96 1.73 65.97 1.75C67.08 2.79 67.78 4.19 67.96 5.69C68.13 7.2 67.77 8.72 66.93 9.99L41.55 48.66L39.39 51.95C38.8 52.84 38 53.57 37.06 54.08C36.12 54.59 35.07 54.85 34 54.85C32.93 54.85 31.88 54.59 30.94 54.08C30 53.57 29.2 52.84 28.61 51.95Z" fill="url(#paint_linear_3_323_0)" fill-opacity="1.000000" fill-rule="nonzero"/>
		<path id="Vector" d="M37.22 33.12L38.88 30.59C38.39 31.48 37.84 32.32 37.22 33.12Z" fill="url(#paint_linear_3_324_0)" fill-opacity="1.000000" fill-rule="nonzero"/>
		<g opacity="0.250000">
			<path id="Vector" d="M34.01 53.57C33.15 53.58 32.3 53.37 31.54 52.96C30.79 52.56 30.15 51.96 29.68 51.24L24.22 42.93C29.23 45.82 37.61 45.95 50.39 32.87L38.32 51.25C37.85 51.97 37.22 52.56 36.46 52.97C35.71 53.37 34.86 53.58 34.01 53.57Z" fill="#FFFFFF" fill-opacity="1.000000" fill-rule="nonzero"/>
		</g>
		<g opacity="0.300000">
			<path id="Vector" d="M45.49 12.45L45.56 12.45L45.51 12.45C45.5 12.45 45.5 12.45 45.49 12.45Z" fill="#4B4B4C" fill-opacity="1.000000" fill-rule="nonzero"/>
		</g>
		<g opacity="0.300000">
			<path id="Vector" d="M47.33 16.95L47.29 17.02L47.31 16.98C47.31 16.97 47.32 16.96 47.33 16.95Z" fill="#4B4B4C" fill-opacity="1.000000" fill-rule="nonzero"/>
		</g>
		<g opacity="0.300000">
			<path id="Vector" d="M22.16 40.51C22.91 40.38 23.66 40.28 24.4 40.12C25.14 39.96 25.88 39.8 26.59 39.58C27.33 39.39 28.03 39.11 28.74 38.87C29.44 38.59 30.13 38.32 30.8 37.98C31.47 37.65 32.12 37.28 32.75 36.88C33.38 36.48 33.98 36.04 34.55 35.57C34.69 35.45 34.82 35.32 34.96 35.2L34.96 35.2L34.97 35.2L34.97 35.2L34.97 35.2C35.22 35.12 35.46 35.01 35.68 34.87C36.1 34.62 36.46 34.28 36.72 33.87L37.22 33.12L38.88 30.58C38.89 30.57 38.9 30.55 38.91 30.54L47.67 17.18C48 16.69 48.18 16.12 48.21 15.53C48.23 14.95 48.1 14.36 47.82 13.85C47.54 13.33 47.13 12.9 46.62 12.6C46.12 12.3 45.54 12.14 44.95 12.14L40.35 12.14L40.35 7.25C40.43 8.83 40.47 10.39 40.52 11.97C42.21 11.9 43.88 11.88 45.56 11.84L45.59 11.84L45.63 11.85C45.91 11.92 46.19 12.02 46.45 12.15C46.71 12.27 46.96 12.41 47.19 12.58C47.42 12.76 47.64 12.96 47.83 13.19C47.92 13.3 48.01 13.43 48.09 13.55C48.17 13.68 48.24 13.81 48.29 13.96C48.36 14.09 48.41 14.24 48.44 14.39C48.49 14.53 48.51 14.68 48.53 14.83C48.54 14.98 48.55 15.12 48.55 15.27L48.53 15.72C48.49 16 48.43 16.28 48.35 16.56L48.06 17.36L48.05 17.38L48.03 17.42C46.39 19.97 44.73 22.51 43.07 25.05L40.56 28.85L38.04 32.63C37.61 33.27 37.22 33.87 36.75 34.54C36.23 35.14 35.65 35.68 35.02 36.16C34.41 36.63 33.77 37.06 33.1 37.45C32.43 37.84 31.74 38.19 31.04 38.5C30.34 38.82 29.62 39.08 28.89 39.33C28.66 39.4 28.42 39.47 28.19 39.52C27.69 39.67 27.19 39.81 26.67 39.9C25.93 40.08 25.18 40.19 24.43 40.31C23.67 40.42 22.92 40.44 22.16 40.51Z" fill="#4B4B4C" fill-opacity="1.000000" fill-rule="nonzero"/>
		</g>
		<g opacity="0.350000">
			<path id="Vector" d="M41.55 48.66C42.5 47.03 43.5 45.43 44.48 43.81C45.46 42.17 46.5 40.55 47.51 38.92L50.57 34.06L53.69 29.22C55.77 26 57.87 22.8 59.99 19.61L63.19 14.83C64.25 13.25 65.35 11.68 66.42 10.1C66.63 9.66 66.84 9.23 67.04 8.79L67.28 8.1C67.36 7.87 67.42 7.64 67.46 7.4L67.58 6.68C67.6 6.44 67.59 6.21 67.6 5.96C67.61 5.72 67.6 5.48 67.54 5.25C67.53 5 67.48 4.77 67.4 4.54C67.34 4.3 67.26 4.08 67.16 3.85C67.05 3.64 66.96 3.41 66.83 3.21C66.7 3 66.57 2.8 66.42 2.6C66.25 2.41 66.1 2.22 65.93 2.04C65.23 1.33 64.4 0.74 63.5 0.31C63.97 0.48 64.43 0.7 64.87 0.96C65.09 1.08 65.3 1.22 65.51 1.38C65.65 1.48 65.78 1.59 65.92 1.71C65.94 1.72 65.95 1.74 65.97 1.76C67.08 2.8 67.78 4.19 67.95 5.7C68.13 7.21 67.76 8.73 66.93 10L41.55 48.66Z" fill="#FFFFFF" fill-opacity="1.000000" fill-rule="nonzero"/>
		</g>
		<g opacity="0.350000">
			<path id="Vector" d="M27.64 11.17C27.64 11.17 27.46 10.25 27.33 8.87C27.29 8.53 27.26 8.16 27.23 7.76C27.21 7.37 27.18 6.94 27.13 6.55C27.11 6.35 27.09 6.15 27.06 5.93C27 5.74 26.96 5.54 26.91 5.33L26.84 5.02L26.72 4.74C26.66 4.54 26.58 4.34 26.49 4.15L26.19 3.6C26.09 3.42 25.95 3.26 25.84 3.09C25.72 2.93 25.58 2.77 25.44 2.62C25.31 2.47 25.17 2.32 25.01 2.19C24.72 1.93 24.41 1.69 24.09 1.47C23.77 1.27 23.47 1.08 23.17 0.92C22.88 0.77 22.6 0.63 22.35 0.52C22.09 0.41 21.86 0.32 21.68 0.25C21.3 0.1 21.08 0.03 21.08 0.03L21.1 0.03C22.89 0.21 24.55 1.05 25.76 2.38C26.97 3.71 27.64 5.45 27.64 7.25L27.64 11.17Z" fill="#FFFFFF" fill-opacity="1.000000" fill-rule="nonzero"/>
		</g>
		<g opacity="0.300000">
			<path id="Vector" d="M29.11 30.56C28.7 30.05 28.3 29.52 27.91 29C27.51 28.46 27.1 27.92 26.71 27.38C25.92 26.3 25.16 25.21 24.39 24.11C23.63 23.01 22.86 21.92 22.13 20.8C21.38 19.69 20.65 18.57 19.93 17.45L19.91 17.42L19.91 17.41C19.69 16.94 19.42 16.48 19.24 16C19.04 15.52 18.87 15.03 18.72 14.53C18.56 14.03 18.42 13.53 18.31 13.02C18.22 12.51 18.12 12.01 18.06 11.49C17.99 10.98 17.97 10.46 17.94 9.95C17.92 9.43 17.92 8.92 17.95 8.41C17.99 7.4 18.13 6.4 18.37 5.43C18.37 5.41 18.38 5.39 18.38 5.37C18.33 5.88 18.33 6.38 18.31 6.89C18.3 7.4 18.33 7.9 18.36 8.41C18.39 8.91 18.44 9.41 18.5 9.9C18.57 10.4 18.65 10.9 18.74 11.38C18.83 11.88 18.96 12.35 19.08 12.84C19.23 13.31 19.35 13.8 19.53 14.26C19.61 14.52 19.71 14.77 19.81 15.02C19.74 15.61 19.83 16.2 20.07 16.74C20.12 16.83 20.16 16.93 20.22 17.02C20.25 17.08 20.28 17.13 20.32 17.19L22.49 20.49L22.5 20.51L29.11 30.56Z" fill="#4B4B4C" fill-opacity="1.000000" fill-rule="nonzero"/>
		</g>
		<g opacity="0.350000">
			<path id="Vector" d="M9.06 22.17L4.28 14.89L1.06 9.99C0.42 9.02 0.06 7.89 0.01 6.73C-0.04 5.56 0.23 4.41 0.78 3.39C1.33 2.36 2.15 1.51 3.15 0.91C4.15 0.31 5.29 0 6.45 0L14.38 0C14.58 0 14.77 0.02 14.96 0.03C13.42 0.16 11.9 0.21 10.36 0.3C8.84 0.36 7.33 0.42 5.81 0.46C5.61 0.5 5.4 0.55 5.2 0.62C4.99 0.69 4.78 0.77 4.57 0.85C4.16 1.01 3.76 1.21 3.38 1.44C3.2 1.55 3.03 1.69 2.85 1.81C2.67 1.95 2.52 2.1 2.35 2.23C2.19 2.38 2.06 2.56 1.91 2.71C1.78 2.87 1.65 3.05 1.54 3.23C1.41 3.4 1.31 3.59 1.22 3.78C1.12 3.97 1.04 4.17 0.98 4.37L0.79 4.99L0.7 5.63L0.65 5.95L0.66 6.29L0.65 6.94C0.66 7.17 0.7 7.38 0.73 7.61L0.8 8.18C2.24 10.46 3.64 12.76 5.01 15.07L6.05 16.83C6.4 17.42 6.74 18.01 7.08 18.61C7.74 19.79 8.42 20.97 9.06 22.17Z" fill="#FFFFFF" fill-opacity="1.000000" fill-rule="nonzero"/>
		</g>
	</g>
</svg>
